# xmcd
# Copyright (C) 1995-1998 Ti Kan
#
# Track frame offsets:
#       150
#       14540
#       29879
#       45960
#
# Disc length: 969 seconds
#
# Revision: 0
# Processed by: cddbd v1.5.2PL0 Copyright (c) Steve Scherf et al.
# Submitted via: CD-Import v1.0
#
DISCID=2c03c704
DTITLE=New Glasses - Demo-Ep
DYEAR=11
DGENRE=
TTITLE0=Forgot You Soon
TTITLE1=Let Me Be (In My Fantasy)
TTITLE2=Let It Begin
TTITLE3=Away From You
EXTD=
EXTT0=
EXTT1=
EXTT2=
EXTT3=
PLAYORDER=
